<svg version="1.2" xmlns="http://www.w3.org/2000/svg" viewBox="0 0 900 289" width="1980" height="636">
	<title>rosa-svg</title>
	<style>
		.s0 { fill: #121212 } 
		.s1 { fill: #d24074 } 
		.s2 { fill: #de5684 } 
		.s3 { fill: #e96a95 } 
		.s4 { fill: #f47da6 } 
		.s5 { fill: #ff90b7 } 
	</style>
	<path id="Layer" class="s0" d="m0-311h900v600h-900z"/>
	<path id="Layer" class="s1" d="m0 20l15 0.7c15 0.6 45 2 75 9.3 30 7.3 60 20.7 90 28.3 30 7.7 60 9.7 90-3 30-12.6 60-40 90-49.5 30-9.5 60-1.1 90 3.2 30 4.3 60 4.7 90 7.3 30 2.7 60 7.7 90 18.7 30 11 60 28 90 30.3 30 2.4 60-10 90-20.5 30-10.5 60-19.1 75-23.5l15-4.3v273h-15c-15 0-45 0-75 0q-45 0-90 0-45 0-90 0-45 0-90 0-45 0-90 0-45 0-90 0-45 0-90 0-45 0-90 0-45 0-90 0c-30 0-60 0-75 0h-15z"/>
	<path id="Layer" class="s2" d="m0 56l15 1.2c15 1.1 45 3.5 75 0.6 30-2.8 60-10.8 90 0.7 30 11.5 60 42.5 90 58.7 30 16.1 60 17.5 90 17 30-0.5 60-2.9 90-13.5 30-10.7 60-29.7 90-41 30-11.4 60-15 90-9.4 30 5.7 60 20.7 90 28 30 7.4 60 7 90-4.3 30-11.3 60-33.7 75-44.8l15-11.2v252h-15c-15 0-45 0-75 0q-45 0-90 0-45 0-90 0-45 0-90 0-45 0-90 0-45 0-90 0-45 0-90 0-45 0-90 0-45 0-90 0c-30 0-60 0-75 0h-15z"/>
	<path id="Layer" class="s3" d="m0 101l15 0.8c15 0.9 45 2.5 75 13.4 30 10.8 60 30.8 90 37.1 30 6.4 60-1 90 0.9 30 1.8 60 12.8 90 6.8 30-6 60-29 90-28.2 30 0.9 60 25.5 90 30.7 30 5.2 60-9.2 90-24.2 30-15 60-30.6 90-25.8 30 4.8 60 30.2 90 38 30 7.8 60-1.8 75-6.7l15-4.8v151h-15c-15 0-45 0-75 0q-45 0-90 0-45 0-90 0-45 0-90 0-45 0-90 0-45 0-90 0-45 0-90 0-45 0-90 0-45 0-90 0c-30 0-60 0-75 0h-15z"/>
	<path id="Layer" class="s4" d="m0 180l15 4.7c15 4.6 45 14 75 12.8 30-1.2 60-12.8 90-22.5 30-9.7 60-17.3 90-16.8 30 0.5 60 9.1 90 18.3 30 9.2 60 18.8 90 24.8 30 6 60 8.4 90-1.1 30-9.5 60-30.9 90-32.9 30-2 60 15.4 90 19.2 30 3.8 60-5.8 90-5.3 30 0.5 60 11.1 75 16.5l15 5.3v87h-15c-15 0-45 0-75 0q-45 0-90 0-45 0-90 0-45 0-90 0-45 0-90 0-45 0-90 0-45 0-90 0-45 0-90 0-45 0-90 0c-30 0-60 0-75 0h-15z"/>
	<path id="Layer" class="s5" d="m0 222l15 4.8c15 4.9 45 14.5 75 10.7 30-3.8 60-21.2 90-20 30 1.2 60 20.8 90 25.7 30 4.8 60-5.2 90-11.5 30-6.4 60-9 90-3.2 30 5.8 60 20.2 90 25.2 30 5 60 0.6 90-8.9 30-9.5 60-24.1 90-29.3 30-5.2 60-0.8 90-1.7 30-0.8 60-6.8 75-9.8l15-3v89h-15c-15 0-45 0-75 0q-45 0-90 0-45 0-90 0-45 0-90 0-45 0-90 0-45 0-90 0-45 0-90 0-45 0-90 0-45 0-90 0c-30 0-60 0-75 0h-15z"/>
</svg>